<svg width="68" height="68" viewBox="0 0 68 68" fill="none" xmlns="http://www.w3.org/2000/svg">
<rect width="68" height="68" rx="34" fill="url(#paint0_linear_1247_290)" fill-opacity="0.1"/>
<rect x="8" y="8" width="52" height="52" rx="26" fill="url(#paint1_linear_1247_290)" fill-opacity="0.17"/>
<rect x="8.5" y="8.5" width="51" height="51" rx="25.5" stroke="url(#paint2_linear_1247_290)" stroke-opacity="0.2"/>
<g clip-path="url(#clip0_1247_290)">
<path d="M43.0101 26.5019C41.3529 25.7415 39.5759 25.1813 37.7179 24.8605C37.6841 24.8543 37.6503 24.8697 37.6328 24.9007C37.4043 25.3072 37.1511 25.8375 36.9739 26.2543C34.9754 25.9551 32.9873 25.9551 31.0298 26.2543C30.8525 25.8282 30.5902 25.3072 30.3606 24.9007C30.3432 24.8708 30.3094 24.8553 30.2756 24.8605C28.4186 25.1803 26.6415 25.7405 24.9833 26.5019C24.969 26.5081 24.9567 26.5184 24.9485 26.5318C21.5778 31.5675 20.6545 36.4795 21.1074 41.3305C21.1095 41.3543 21.1228 41.377 21.1413 41.3914C23.3651 43.0246 25.5193 44.016 27.6336 44.6732C27.6674 44.6836 27.7032 44.6712 27.7248 44.6433C28.2249 43.9603 28.6707 43.2402 29.0529 42.4829C29.0755 42.4386 29.054 42.386 29.0079 42.3684C28.3007 42.1002 27.6274 41.7731 26.9797 41.4017C26.9285 41.3718 26.9244 41.2985 26.9715 41.2635C27.1078 41.1613 27.2441 41.055 27.3743 40.9478C27.3978 40.9282 27.4306 40.924 27.4583 40.9364C31.7134 42.8791 36.32 42.8791 40.5249 40.9364C40.5526 40.923 40.5854 40.9271 40.6099 40.9467C40.7401 41.054 40.8764 41.1613 41.0137 41.2635C41.0609 41.2985 41.0578 41.3718 41.0066 41.4017C40.3589 41.7803 39.6855 42.1002 38.9774 42.3674C38.9313 42.3849 38.9108 42.4386 38.9333 42.4829C39.3238 43.2392 39.7696 43.9593 40.2605 44.6423C40.281 44.6712 40.3179 44.6836 40.3517 44.6732C42.4761 44.016 44.6303 43.0246 46.8542 41.3914C46.8737 41.377 46.886 41.3553 46.8881 41.3316C47.4302 35.7232 45.98 30.8515 43.0439 26.5328C43.0367 26.5184 43.0245 26.5081 43.0101 26.5019ZM29.6884 38.3768C28.4073 38.3768 27.3517 37.2006 27.3517 35.7562C27.3517 34.3119 28.3868 33.1357 29.6884 33.1357C31.0001 33.1357 32.0455 34.3222 32.025 35.7562C32.025 37.2006 30.9899 38.3768 29.6884 38.3768ZM38.3276 38.3768C37.0466 38.3768 35.9911 37.2006 35.9911 35.7562C35.9911 34.3119 37.0261 33.1357 38.3276 33.1357C39.6394 33.1357 40.6847 34.3222 40.6643 35.7562C40.6643 37.2006 39.6394 38.3768 38.3276 38.3768Z" fill="#5865F2"/>
</g>
<defs>
<linearGradient id="paint0_linear_1247_290" x1="34" y1="0" x2="34" y2="68" gradientUnits="userSpaceOnUse">
<stop stop-color="#5865F2"/>
<stop offset="1" stop-color="#5865F2" stop-opacity="0"/>
</linearGradient>
<linearGradient id="paint1_linear_1247_290" x1="34" y1="-26.4324" x2="34" y2="142.216" gradientUnits="userSpaceOnUse">
<stop stop-color="#5865F2"/>
<stop offset="0.467671" stop-color="#5865F2" stop-opacity="0"/>
</linearGradient>
<linearGradient id="paint2_linear_1247_290" x1="34" y1="-82.2973" x2="34" y2="107.081" gradientUnits="userSpaceOnUse">
<stop stop-color="#5865F2"/>
<stop offset="0.716291" stop-color="#5865F2" stop-opacity="0"/>
</linearGradient>
<clipPath id="clip0_1247_290">
<rect width="26" height="26" fill="white" transform="translate(21 22)"/>
</clipPath>
</defs>
</svg>
