<svg width="54" height="77" viewBox="0 0 54 77" fill="none" xmlns="http://www.w3.org/2000/svg">
<path fill-rule="evenodd" clip-rule="evenodd" d="M11.6238 28.8981V30.8268C9.29533 31.16 6.9911 31.5685 4.71368 32.05C3.82825 32.2372 3.24813 33.0896 3.39878 33.9819C4.54729 40.7853 10.2153 46.0509 17.2106 46.5811C18.9783 48.0247 21.0792 49.079 23.3811 49.6106C23.1587 52.2392 22.2671 54.6746 20.8773 56.75H19.217C16.887 56.75 14.9982 58.6388 14.9982 60.9688V66.875H13.3105C10.5145 66.875 8.24799 69.1416 8.24799 71.9375C8.24799 72.8695 9.00351 73.625 9.93549 73.625H43.6855C44.6175 73.625 45.373 72.8695 45.373 71.9375C45.373 69.1416 43.1064 66.875 40.3105 66.875H38.6232V60.9688C38.6232 58.6388 36.7344 56.75 34.4045 56.75H32.743C31.3536 54.6749 30.4626 52.2394 30.2404 49.6109C32.5427 49.0794 34.644 48.0249 36.412 46.5811C43.4073 46.0509 49.0753 40.7853 50.2238 33.9819C50.3745 33.0896 49.7944 32.2372 48.9089 32.05C46.6315 31.5685 44.3273 31.16 41.9988 30.8268V28.8981C41.9988 28.0468 41.3648 27.3289 40.5201 27.2235C36.0285 26.6634 31.4532 26.375 26.8113 26.375C22.1694 26.375 17.5941 26.6634 13.1025 27.2235C12.2578 27.3289 11.6238 28.0468 11.6238 28.8981ZM11.6238 34.8125C11.6238 37.5039 12.3246 40.0324 13.5526 42.2245C10.4991 40.8576 8.13096 38.2319 7.11006 35.008C8.60333 34.7186 10.1082 34.4614 11.6238 34.2373V34.8125ZM41.9988 34.8125V34.2373C43.5144 34.4614 45.0193 34.7186 46.5125 35.008C45.4916 38.2319 43.1235 40.8576 40.07 42.2245C41.298 40.0324 41.9988 37.5039 41.9988 34.8125Z" fill="#B0B0B0" stroke="black" stroke-width="2" stroke-linejoin="round"/>
<g clip-path="url(#clip0_556_144)">
<path fill-rule="evenodd" clip-rule="evenodd" d="M30.8719 9.15854C30.701 9.41273 30.424 9.41273 30.2532 9.15854L27.5 3.7608L27.5 11.0001L27.5 17.8107C27.5 18.1702 26.4291 18.4616 26.1875 18.4616C25.9459 18.4616 24.5 18.1702 24.5 17.8107L24.5 11.0001L24.5 3.7608L22.1219 9.15854C21.951 9.41273 21.1709 9.25431 21 9.00012C20.8291 8.74593 20.8292 7.75431 21 7.50012L24.5 1.00012C25.6875 -0.228992 27.3292 0.745836 27.5 1.00002L31 7.50012C31.1709 7.75431 31.0427 8.90435 30.8719 9.15854Z" fill="#097981"/>
</g>
<g clip-path="url(#clip1_556_144)">
<path fill-rule="evenodd" clip-rule="evenodd" d="M38.8951 17.8687C38.7553 18.0594 38.5287 18.0594 38.3889 17.8687L36.1363 13.8204L36.1363 19.2499L36.1363 24.3579C36.1363 24.6275 35.2602 24.846 35.0625 24.846C34.8648 24.846 33.6818 24.6275 33.6818 24.3579L33.6818 19.2499L33.6818 13.8204L31.736 17.8687C31.5963 18.0594 30.9579 17.9405 30.8181 17.7499C30.6784 17.5593 30.6784 16.8155 30.8182 16.6249L33.6818 11.7499C34.6534 10.8281 35.9966 11.5592 36.1363 11.7498L39 16.6249C39.1398 16.8155 39.0349 17.6781 38.8951 17.8687Z" fill="#097981"/>
</g>
<g clip-path="url(#clip2_556_144)">
<path fill-rule="evenodd" clip-rule="evenodd" d="M20.8951 14.7846C20.7553 15.0007 20.5287 15.0007 20.3889 14.7846L18.1363 10.1965L18.1363 16.3499L18.1363 22.139C18.1363 22.4445 17.2602 22.6922 17.0625 22.6922C16.8648 22.6922 15.6818 22.4445 15.6818 22.139L15.6818 16.3499L15.6818 10.1965L13.736 14.7846C13.5963 15.0007 12.9579 14.866 12.8181 14.6499C12.6784 14.4339 12.6784 13.591 12.8182 13.3749L15.6818 7.84994C16.6534 6.8052 17.9966 7.6338 18.1363 7.84986L21 13.3749C21.1398 13.591 21.0349 14.5685 20.8951 14.7846Z" fill="#097981"/>
</g>
<defs>
<clipPath id="clip0_556_144">
<rect width="20" height="11" fill="white" transform="translate(31) rotate(90)"/>
</clipPath>
<clipPath id="clip1_556_144">
<rect width="15" height="9" fill="white" transform="translate(39 11) rotate(90)"/>
</clipPath>
<clipPath id="clip2_556_144">
<rect width="17" height="9" fill="white" transform="translate(21 7) rotate(90)"/>
</clipPath>
</defs>
</svg>
