<svg width="50" height="50" viewBox="0 0 56 58" fill="none" xmlns="http://www.w3.org/2000/svg">
<path d="M28.0295 55.9287C42.0167 55.9287 52.0076 50.7994 52.0076 39.3827C52.0076 26.9732 46.013 18.7002 34.024 12.4955L38.7397 6.20801C38.9793 5.79551 39.1092 5.32475 39.1163 4.84348C39.1235 4.3622 39.0076 3.88755 38.7804 3.46759C38.5532 3.04763 38.2228 2.69732 37.8226 2.45215C37.4224 2.20698 36.9667 2.07567 36.5017 2.07153H19.5572C19.0922 2.07567 18.6365 2.20698 18.2364 2.45215C17.8362 2.69732 17.5058 3.04763 17.2786 3.46759C17.0513 3.88755 16.9354 4.3622 16.9426 4.84348C16.9497 5.32475 17.0797 5.79551 17.3192 6.20801L22.0349 12.5368C10.0459 18.7829 4.05136 27.0559 4.05136 39.4654C4.05136 50.7994 14.0422 55.9287 28.0295 55.9287Z" fill="#B0B0B0" stroke="black" stroke-width="2" stroke-linecap="round" stroke-linejoin="round"/>
<path d="M33.5556 28.1952C33.3656 27.6377 33.0723 27.1308 32.6996 26.6992C31.9068 25.781 30.7548 25.2031 29.4726 25.2031H26.1215C23.9871 25.2031 22.2569 26.9968 22.2569 29.2094C22.2569 31.092 23.5215 32.7207 25.2956 33.1231L30.3977 34.28C32.3853 34.7308 33.802 36.5567 33.802 38.6658C33.802 41.1446 31.8636 43.1558 29.4726 43.1558H26.5863C24.7013 43.1558 23.0976 41.9067 22.5033 40.1635" stroke="#097981" stroke-width="3" stroke-linecap="round" stroke-linejoin="round"/>
<path d="M28.0295 25.2025V20.7144" stroke="#097981" stroke-width="3" stroke-linecap="round" stroke-linejoin="round"/>
<path d="M28.0295 47.6434V43.155" stroke="#097981" stroke-width="3" stroke-linecap="round" stroke-linejoin="round"/>
</svg>
