<svg width="85" height="78" viewBox="0 0 85 78" fill="none" xmlns="http://www.w3.org/2000/svg">
<path d="M27.4852 3.84165C28.0016 3.55278 28.6232 3.55278 29.1397 3.84165L51.8226 16.5291C52.3878 16.8453 52.7402 17.4582 52.7402 18.125C52.7402 18.7918 52.3878 19.4047 51.8226 19.7209L29.1397 32.4084C28.6232 32.6972 28.0016 32.6972 27.4852 32.4084L4.80226 19.7209C4.23708 19.4047 3.88464 18.7918 3.88464 18.125C3.88464 17.4582 4.23708 16.8453 4.80226 16.5291L27.4852 3.84165Z" fill="#B0B0B0"/>
<path d="M7.9901 25.621L25.8308 35.6C27.38 36.4666 29.2448 36.4666 30.7941 35.6L48.6348 25.621L51.8226 27.4041C52.3878 27.7202 52.7402 28.3332 52.7402 29C52.7402 29.6668 52.3878 30.2797 51.8226 30.5958L29.1397 43.2833C28.6232 43.5722 28.0016 43.5722 27.4852 43.2833L4.80226 30.5958C4.23708 30.2797 3.88464 29.6668 3.88464 29C3.88464 28.3332 4.23708 27.7202 4.80226 27.4041L7.9901 25.621Z" fill="#B0B0B0"/>
<path d="M25.8308 46.475L7.9901 36.496L4.80226 38.2791C4.23708 38.5952 3.88464 39.2082 3.88464 39.875C3.88464 40.5418 4.23708 41.1547 4.80226 41.4708L27.4852 54.1583C28.0016 54.4472 28.6232 54.4472 29.1397 54.1583L51.8226 41.4708C52.3878 41.1547 52.7402 40.5418 52.7402 39.875C52.7402 39.2082 52.3878 38.5952 51.8226 38.2791L48.6348 36.496L30.7941 46.475C29.2448 47.3416 27.38 47.3416 25.8308 46.475Z" fill="#B0B0B0"/>
<path d="M51.8383 63.4134L54.6716 48.067C54.8503 47.0995 54.9396 46.6157 55.2237 46.2359C55.5077 45.856 55.9466 45.6336 56.8243 45.1886L56.8243 45.1886L70.5245 38.2434C72.6742 37.1537 73.7491 36.6088 73.6586 35.9023C73.5681 35.1957 72.3935 34.9617 70.0443 34.4937L34.4492 27.4023C32.7421 27.0622 31.8886 26.8922 31.5058 27.3814C31.123 27.8706 31.4931 28.6585 32.2334 30.2342L48.0659 63.9348C49.1516 66.2458 49.6945 67.4013 50.4166 67.3015C51.1388 67.2017 51.372 65.939 51.8383 63.4134Z" fill="#7E869E" fill-opacity="0.25"/>
<path d="M51.8383 63.4134L54.6716 48.067C54.8503 47.0995 54.9396 46.6157 55.2237 46.2359C55.5077 45.856 55.9466 45.6336 56.8243 45.1886L70.5245 38.2434C72.6742 37.1537 73.7491 36.6088 73.6586 35.9023C73.5681 35.1957 72.3935 34.9617 70.0443 34.4937L34.4492 27.4023C32.7421 27.0622 31.8886 26.8922 31.5058 27.3814C31.123 27.8706 31.4931 28.6585 32.2334 30.2342L48.0659 63.9348C49.1516 66.2458 49.6945 67.4013 50.4166 67.3015C51.1388 67.2017 51.372 65.939 51.8383 63.4134Z" fill="#097981" stroke="black" stroke-width="2"/>
</svg>
