<svg width="22" height="14" viewBox="0 0 22 14" fill="none" xmlns="http://www.w3.org/2000/svg">
<path d="M6.3246 11.7866C6.18972 11.7866 6.05484 11.7479 5.94835 11.6651C5.74248 11.505 5.74248 11.24 5.94835 11.0799L10.5769 7.48031C10.9177 7.21531 10.9177 6.78469 10.5769 6.51969L5.94835 2.9201C5.74248 2.76 5.74248 2.495 5.94835 2.3349C6.15422 2.17479 6.49498 2.17479 6.70085 2.3349L11.3294 5.93448C11.6915 6.21604 11.8974 6.59698 11.8974 7C11.8974 7.40302 11.6986 7.78396 11.3294 8.06552L6.70085 11.6651C6.59436 11.7424 6.45948 11.7866 6.3246 11.7866Z" fill="#53EBFF"/>
<path d="M11.2875 11.7866C11.1526 11.7866 11.0177 11.7479 10.9112 11.6651C10.7054 11.505 10.7054 11.24 10.9112 11.0799L15.5398 7.48031C15.8806 7.21531 15.8806 6.78469 15.5398 6.51969L10.9112 2.9201C10.7054 2.76 10.7054 2.495 10.9112 2.3349C11.1171 2.17479 11.4579 2.17479 11.6637 2.3349L16.2923 5.93448C16.6544 6.21604 16.8602 6.59698 16.8602 7C16.8602 7.40302 16.6615 7.78396 16.2923 8.06552L11.6637 11.6651C11.5573 11.7424 11.4224 11.7866 11.2875 11.7866Z" fill="#53EBFF"/>
</svg>
