<svg width="94" height="94" viewBox="0 0 94 94" fill="none" xmlns="http://www.w3.org/2000/svg">
<rect x="0.5" y="0.5" width="93" height="93" rx="46.5" stroke="url(#paint0_linear_293_120)"/>
<rect x="0.5" y="0.5" width="93" height="93" rx="46.5" stroke="url(#paint1_linear_293_120)"/>
<rect x="10.5" y="9.5" width="75" height="75" rx="37.5" stroke="url(#paint2_linear_293_120)"/>
<rect x="10.5" y="9.5" width="75" height="75" rx="37.5" stroke="url(#paint3_linear_293_120)"/>
<path fill-rule="evenodd" clip-rule="evenodd" d="M34.3323 28.6335V30.3123C32.2625 30.6022 30.2143 30.9578 28.1899 31.3769C27.4029 31.5398 26.8872 32.2816 27.0211 33.0583C28.042 38.9798 33.0803 43.5628 39.2983 44.0243C40.8696 45.2807 42.7371 46.1984 44.7832 46.6611C44.5855 48.9489 43.793 51.0686 42.5576 52.875H41.0818C39.0107 52.875 37.3318 54.519 37.3318 56.5469V61.6875H35.8315C33.3463 61.6875 31.3315 63.6602 31.3315 66.0938C31.3315 66.9049 32.0031 67.5625 32.8315 67.5625H62.8315C63.66 67.5625 64.3316 66.9049 64.3316 66.0938C64.3316 63.6602 62.3168 61.6875 59.8315 61.6875H58.3318V56.5469C58.3318 54.519 56.6528 52.875 54.5818 52.875H53.1049C51.8699 51.0689 51.0779 48.9491 50.8803 46.6614C52.9268 46.1987 54.7947 45.2809 56.3662 44.0243C62.5842 43.5628 67.6225 38.9798 68.6434 33.0583C68.7773 32.2816 68.2617 31.5398 67.4746 31.3769C65.4502 30.9578 63.402 30.6022 61.3323 30.3123V28.6335C61.3323 27.8926 60.7687 27.2677 60.0179 27.176C56.0253 26.6885 51.9584 26.4375 47.8323 26.4375C43.7061 26.4375 39.6392 26.6885 35.6467 27.176C34.8958 27.2677 34.3323 27.8926 34.3323 28.6335ZM34.3323 33.7812C34.3323 36.1238 34.9552 38.3245 36.0468 40.2325C33.3325 39.0427 31.2275 36.7574 30.3201 33.9514C31.6474 33.6995 32.985 33.4757 34.3323 33.2807V33.7812ZM61.3323 33.7812V33.2807C62.6795 33.4757 64.0171 33.6995 65.3445 33.9514C64.437 36.7574 62.332 39.0427 59.6178 40.2325C60.7093 38.3245 61.3323 36.1238 61.3323 33.7812Z" fill="#56F3FF"/>
<defs>
<linearGradient id="paint0_linear_293_120" x1="7.73781" y1="99.1585" x2="98.2988" y2="-6.30488" gradientUnits="userSpaceOnUse">
<stop stop-color="#53EBFF"/>
<stop offset="0.323723" stop-color="#54EDFF" stop-opacity="0"/>
</linearGradient>
<linearGradient id="paint1_linear_293_120" x1="93.7134" y1="-12.0366" x2="7.7378" y2="94" gradientUnits="userSpaceOnUse">
<stop stop-color="#53EBFF"/>
<stop offset="0.576615" stop-color="#54EDFF" stop-opacity="0"/>
</linearGradient>
<linearGradient id="paint2_linear_293_120" x1="1.72581" y1="13.2903" x2="85.6935" y2="85" gradientUnits="userSpaceOnUse">
<stop stop-color="#53EBFF"/>
<stop offset="0.323723" stop-color="#54EDFF" stop-opacity="0"/>
</linearGradient>
<linearGradient id="paint3_linear_293_120" x1="101.016" y1="102.161" x2="12.7581" y2="39.6452" gradientUnits="userSpaceOnUse">
<stop stop-color="#53EBFF"/>
<stop offset="0.576615" stop-color="#54EDFF" stop-opacity="0"/>
</linearGradient>
</defs>
</svg>
