<svg width="31" height="24" viewBox="0 0 31 24" fill="none" xmlns="http://www.w3.org/2000/svg">
<path d="M15.9096 20.67C15.7196 20.67 15.5296 20.6 15.3796 20.45C15.0896 20.16 15.0896 19.68 15.3796 19.39L21.8996 12.87C22.3796 12.39 22.3796 11.61 21.8996 11.13L15.3796 4.61C15.0896 4.32 15.0896 3.84 15.3796 3.55C15.6696 3.26 16.1496 3.26 16.4396 3.55L22.9596 10.07C23.4696 10.58 23.7596 11.27 23.7596 12C23.7596 12.73 23.4796 13.42 22.9596 13.93L16.4396 20.45C16.2896 20.59 16.0996 20.67 15.9096 20.67Z" fill="white"/>
<path d="M8.90961 20.67C8.71961 20.67 8.52961 20.6 8.37961 20.45C8.08961 20.16 8.08961 19.68 8.37961 19.39L14.8996 12.87C15.3796 12.39 15.3796 11.61 14.8996 11.13L8.37961 4.61C8.08961 4.32 8.08961 3.84 8.37961 3.55C8.66961 3.26 9.14961 3.26 9.43961 3.55L15.9596 10.07C16.4696 10.58 16.7596 11.27 16.7596 12C16.7596 12.73 16.4796 13.42 15.9596 13.93L9.43961 20.45C9.28961 20.59 9.09961 20.67 8.90961 20.67Z" fill="white"/>
</svg>
