<svg width="49" height="54" viewBox="0 0 49 54" fill="none" xmlns="http://www.w3.org/2000/svg">
<path opacity="0.4" d="M22.0179 4.63498L10.9689 9.26998C8.8595 10.17 7.13184 12.96 7.13184 15.5025V33.7275C7.13184 35.55 8.19656 37.9575 9.50235 39.0375L20.5514 48.285C22.5 49.9275 25.6942 49.9275 27.6428 48.285L38.6918 39.0375C39.9976 37.935 41.0623 35.55 41.0623 33.7275V15.5025C41.0623 12.9825 39.3347 10.17 37.2253 9.29248L26.1763 4.65748C25.0513 4.16248 23.1629 4.16248 22.0179 4.63498Z" fill="#68F327"/>
<path d="M21.4167 32.0175C21.035 32.0175 20.6533 31.86 20.3519 31.5225L17.1176 27.9C16.535 27.2475 16.535 26.1675 17.1176 25.515C17.7002 24.8625 18.6645 24.8625 19.247 25.515L21.4167 27.945L28.9903 19.4625C29.5729 18.81 30.5371 18.81 31.1197 19.4625C31.7023 20.115 31.7023 21.195 31.1197 21.8475L22.4814 31.5225C22.1801 31.86 21.7984 32.0175 21.4167 32.0175Z" fill="#68F327"/>
</svg>
