<svg width="96" height="96" viewBox="0 0 96 96" fill="none" xmlns="http://www.w3.org/2000/svg">
<rect x="0.833374" width="95" height="96" rx="47.5" fill="url(#paint0_linear_41_203)" fill-opacity="0.05"/>
<rect x="12.8334" y="12" width="71" height="72" rx="35.5" fill="url(#paint1_linear_41_203)" fill-opacity="0.1"/>
<rect x="13.3334" y="12.5" width="70" height="71" rx="35" stroke="url(#paint2_linear_41_203)" stroke-opacity="0.2"/>
<path fill-rule="evenodd" clip-rule="evenodd" d="M56.9686 57.4628C59.4057 55.0922 60.9271 51.7295 60.9271 48C60.9271 40.8203 55.2887 35 48.3334 35C41.378 35 35.7396 40.8203 35.7396 48C35.7396 51.7295 37.261 55.0922 39.6981 57.4628C41.9527 59.6559 44.991 61 48.3334 61C51.6758 61 54.7141 59.6559 56.9686 57.4628ZM40.7708 55.7497C42.5462 53.4637 45.2742 52 48.3334 52C51.3926 52 54.1205 53.4637 55.8959 55.7497C53.9654 57.757 51.29 59 48.3334 59C45.3767 59 42.7014 57.757 40.7708 55.7497ZM53.1771 44C53.1771 46.7614 51.0085 49 48.3334 49C45.6582 49 43.4896 46.7614 43.4896 44C43.4896 41.2386 45.6582 39 48.3334 39C51.0085 39 53.1771 41.2386 53.1771 44Z" fill="#56F3FF"/>
<defs>
<linearGradient id="paint0_linear_41_203" x1="48.3334" y1="0" x2="48.3334" y2="96" gradientUnits="userSpaceOnUse">
<stop stop-color="#53EBFF"/>
<stop offset="1" stop-color="#54EDFF" stop-opacity="0"/>
</linearGradient>
<linearGradient id="paint1_linear_41_203" x1="48.3334" y1="-35.6757" x2="48.3334" y2="197.838" gradientUnits="userSpaceOnUse">
<stop stop-color="#53EBFF"/>
<stop offset="0.467671" stop-color="#54EDFF" stop-opacity="0"/>
</linearGradient>
<linearGradient id="paint2_linear_41_203" x1="48.3334" y1="-113.027" x2="48.3334" y2="149.189" gradientUnits="userSpaceOnUse">
<stop stop-color="#53EBFF"/>
<stop offset="0.716291" stop-color="#54EDFF" stop-opacity="0"/>
</linearGradient>
</defs>
</svg>
