<svg width="96" height="94" viewBox="0 0 96 94" fill="none" xmlns="http://www.w3.org/2000/svg">
<rect x="0.166626" width="95" height="94" rx="47" fill="url(#paint0_linear_41_165)" fill-opacity="0.05"/>
<rect x="12.1666" y="12" width="71" height="70" rx="35" fill="url(#paint1_linear_41_165)" fill-opacity="0.1"/>
<rect x="12.6666" y="12.5" width="70" height="69" rx="34.5" stroke="url(#paint2_linear_41_165)" stroke-opacity="0.2"/>
<path fill-rule="evenodd" clip-rule="evenodd" d="M38.8395 35.2767V36.3482C37.5028 36.5333 36.18 36.7603 34.8726 37.0278C34.3643 37.1318 34.0313 37.6053 34.1178 38.1011C34.7771 41.8807 38.031 44.8061 42.0468 45.1006C43.0616 45.9026 44.2677 46.4883 45.5891 46.7837C45.4614 48.244 44.9496 49.597 44.1517 50.75H43.1986C41.861 50.75 40.7767 51.7993 40.7767 53.0938V56.375H39.8078C38.2028 56.375 36.9016 57.6342 36.9016 59.1875C36.9016 59.7053 37.3353 60.125 37.8703 60.125H57.2453C57.7804 60.125 58.2141 59.7053 58.2141 59.1875C58.2141 57.6342 56.9129 56.375 55.3078 56.375H54.3392V53.0938C54.3392 51.7993 53.2549 50.75 51.9173 50.75H50.9635C50.1659 49.5972 49.6544 48.2441 49.5268 46.7838C50.8485 46.4885 52.0548 45.9027 53.0698 45.1006C57.0856 44.8061 60.3395 41.8807 60.9988 38.1011C61.0853 37.6053 60.7523 37.1318 60.244 37.0278C58.9366 36.7603 57.6138 36.5333 56.2771 36.3482V35.2767C56.2771 34.8038 55.9131 34.4049 55.4282 34.3464C52.8496 34.0352 50.2231 33.875 47.5583 33.875C44.8935 33.875 42.267 34.0352 39.6884 34.3464C39.2035 34.4049 38.8395 34.8038 38.8395 35.2767ZM38.8395 38.5625C38.8395 40.0577 39.2419 41.4624 39.9468 42.6803C38.1939 41.9209 36.8344 40.4622 36.2483 38.6711C37.1056 38.5103 37.9695 38.3675 38.8395 38.243V38.5625ZM56.2771 38.5625V38.243C57.1471 38.3675 58.011 38.5103 58.8683 38.6711C58.2822 40.4622 56.9227 41.9209 55.1698 42.6803C55.8747 41.4624 56.2771 40.0577 56.2771 38.5625Z" fill="#56F3FF"/>
<defs>
<linearGradient id="paint0_linear_41_165" x1="47.6666" y1="0" x2="47.6666" y2="94" gradientUnits="userSpaceOnUse">
<stop stop-color="#53EBFF"/>
<stop offset="1" stop-color="#54EDFF" stop-opacity="0"/>
</linearGradient>
<linearGradient id="paint1_linear_41_165" x1="47.6666" y1="-34.3514" x2="47.6666" y2="192.676" gradientUnits="userSpaceOnUse">
<stop stop-color="#53EBFF"/>
<stop offset="0.467671" stop-color="#54EDFF" stop-opacity="0"/>
</linearGradient>
<linearGradient id="paint2_linear_41_165" x1="47.6666" y1="-109.554" x2="47.6666" y2="145.378" gradientUnits="userSpaceOnUse">
<stop stop-color="#53EBFF"/>
<stop offset="0.716291" stop-color="#54EDFF" stop-opacity="0"/>
</linearGradient>
</defs>
</svg>
