<svg width="96" height="96" viewBox="0 0 96 96" fill="none" xmlns="http://www.w3.org/2000/svg">
<rect x="3.05176e-05" width="96" height="96" rx="48" fill="url(#paint0_linear_41_195)" fill-opacity="0.05"/>
<rect x="12" y="12" width="72" height="72" rx="36" fill="url(#paint1_linear_41_195)" fill-opacity="0.1"/>
<rect x="12.5" y="12.5" width="71" height="71" rx="35.5" stroke="url(#paint2_linear_41_195)" stroke-opacity="0.2"/>
<path d="M47.5998 35.7404C47.855 35.6289 48.1452 35.6289 48.4005 35.7404C53.3589 37.9068 58.0583 40.5552 62.4394 43.6261C62.7565 43.8483 62.9167 44.2336 62.8508 44.6151C62.7849 44.9967 62.5047 45.3059 62.1315 45.4089C61.2183 45.661 60.3129 45.9325 59.4158 46.2218C55.7744 47.3962 52.2691 48.8738 48.9296 50.625L48.9252 50.6273C48.7738 50.7067 48.6227 50.7867 48.472 50.8672C48.1775 51.0246 47.824 51.0246 47.5295 50.8672C47.3773 50.7859 47.2248 50.7052 47.0719 50.625C45.4206 49.7591 43.7288 48.9601 42 48.2315V47.9333C42 47.7581 42.0899 47.6027 42.229 47.5185C44.2358 46.3027 46.3059 45.1809 48.433 44.1591C48.9308 43.92 49.1406 43.3226 48.9014 42.8248C48.6623 42.3269 48.0649 42.1172 47.5671 42.3563C45.3814 43.4062 43.2545 44.5588 41.1927 45.8079C40.5882 46.1741 40.1818 46.7735 40.0481 47.445C38.9082 47.0066 37.7533 46.5981 36.5844 46.2212C35.6873 45.9319 34.7819 45.6609 33.8688 45.4089C33.4955 45.3059 33.2153 44.9967 33.1494 44.6151C33.0835 44.2336 33.2438 43.8483 33.5608 43.6261C37.942 40.5551 42.6413 37.9068 47.5998 35.7404Z" fill="#56F3FF"/>
<path d="M49.4145 52.6312C52.6664 50.8937 56.0828 49.4249 59.6344 48.2541C59.8134 50.1405 59.9277 52.0457 59.9751 53.9673C59.9852 54.3796 59.7412 54.7558 59.3606 54.9147C55.5591 56.5019 51.9432 58.4454 48.5546 60.7036C48.2188 60.9274 47.7813 60.9274 47.4455 60.7036C44.0569 58.4454 40.441 56.5019 36.6395 54.9147C36.2589 54.7558 36.0149 54.3796 36.0251 53.9673C36.0724 52.0455 36.1867 50.1403 36.3657 48.2537C37.5937 48.6585 38.8056 49.0989 40 49.5737V51.2676C39.4022 51.6134 39 52.2597 39 53C39 53.6604 39.3201 54.2461 39.8137 54.6103C39.6943 55.1178 39.5177 55.6144 39.2837 56.09C39.8873 56.3749 40.4857 56.6689 41.0788 56.9719C41.4166 56.2849 41.6615 55.5639 41.8136 54.8276C42.5127 54.5159 43 53.8149 43 53C43 52.2597 42.5978 51.6134 42 51.2676V50.4079C43.5619 51.0903 45.0918 51.8324 46.587 52.6312C47.4704 53.1033 48.5311 53.1033 49.4145 52.6312Z" fill="#56F3FF"/>
<path d="M37.9497 57.9497C38.5085 57.3909 38.9534 56.7614 39.2837 56.09C39.8873 56.3749 40.4857 56.6689 41.0788 56.9719C40.6541 57.8357 40.0822 58.6456 39.3639 59.3639C38.9734 59.7545 38.3402 59.7545 37.9497 59.3639C37.5591 58.9734 37.5591 58.3403 37.9497 57.9497Z" fill="#56F3FF"/>
<defs>
<linearGradient id="paint0_linear_41_195" x1="48" y1="0" x2="48" y2="96" gradientUnits="userSpaceOnUse">
<stop stop-color="#53EBFF"/>
<stop offset="1" stop-color="#54EDFF" stop-opacity="0"/>
</linearGradient>
<linearGradient id="paint1_linear_41_195" x1="48" y1="-35.6757" x2="48" y2="197.838" gradientUnits="userSpaceOnUse">
<stop stop-color="#53EBFF"/>
<stop offset="0.467671" stop-color="#54EDFF" stop-opacity="0"/>
</linearGradient>
<linearGradient id="paint2_linear_41_195" x1="48" y1="-113.027" x2="48" y2="149.189" gradientUnits="userSpaceOnUse">
<stop stop-color="#53EBFF"/>
<stop offset="0.716291" stop-color="#54EDFF" stop-opacity="0"/>
</linearGradient>
</defs>
</svg>
